<svg width="175" height="24" viewBox="0 0 175 24" fill="none" xmlns="http://www.w3.org/2000/svg">
<path d="M3.22921 20.863H21.4762V3.13701H3.22921V20.863ZM24.7054 24H0V0H24.7054V24Z" fill="#BD282B"/>
<path d="M18.5389 8.50386V5.99048H11.3607L8.77344 8.50386H15.9516V15.4771L18.5389 12.9637V8.50386Z" fill="#BD282B"/>
<path d="M14.1229 12.7749V10.2615H6.94468L4.35742 12.7749H11.5356V19.7481L14.1229 17.2347V12.7749Z" fill="#BD282B"/>
<path d="M145.937 17.8205C145.003 18.1039 144.05 18.0283 143.33 17.5559C142.727 17.1779 142.416 15.9874 142.883 15.2882C143.33 14.6268 144.07 14.4 145.14 14.4C145.937 14.4 147.104 14.5134 147.727 14.8913L147.746 16.5165C147.357 17.0646 146.754 17.5559 145.937 17.8205ZM149.205 9.42991C148.369 8.52282 147.221 8.12597 145.918 8.08817C144.887 8.06928 144.323 8.14487 143.467 8.33384C142.922 8.44723 141.93 8.82518 141.657 9.12754L142.455 10.7527C142.455 10.7527 143.389 10.337 143.758 10.2425C144.342 10.0913 145.665 9.99683 146.229 10.148C147.571 10.5071 147.902 11.3008 147.766 12.8504C147.61 12.8315 146.91 12.5858 146.618 12.548C146.132 12.4724 145.743 12.4346 145.217 12.4346C143.739 12.4157 141.774 12.8882 141.016 14.1921C140.179 15.6094 140.374 17.7071 141.366 18.7653C141.813 19.2189 142.416 19.6535 143.233 19.8803C144.42 20.2205 145.918 19.9937 146.91 19.3512C147.065 19.2378 147.785 18.7653 147.785 18.7653V19.8047H150.061C150.061 19.8047 150.061 15.4394 150.061 14.5701C150.022 12.9071 150.236 10.5638 149.205 9.42991Z" fill="#091B3A"/>
<path d="M135.899 15.9685C135.296 18.1606 133.351 18.3307 131.873 17.4425C131.386 17.1401 131.056 16.8378 130.764 16.422V12.0756C130.764 11.5275 130.803 11.5653 131.095 11.263C131.717 10.6394 132.495 10.1858 133.507 10.1858C134.11 10.1858 134.732 10.3937 135.121 10.8094C136.152 11.8677 136.269 14.5701 135.899 15.9685ZM137.183 9.65668C136.931 9.31652 136.639 9.01416 136.25 8.74959C135.51 8.25825 134.382 7.93699 133.254 8.12597C131.581 8.40943 130.764 9.31652 130.764 9.31652L130.744 3.8551L128.507 5.02676L128.527 19.7669H130.764V18.7842C130.764 18.7842 131.309 19.2567 131.873 19.5401C133.371 20.2583 135.005 20.1071 136.289 19.2C136.872 18.8031 137.592 17.9149 137.864 17.1401C138.253 16.0819 138.37 15.2126 138.351 13.9464C138.331 12.3023 138.098 10.9039 137.183 9.65668Z" fill="#091B3A"/>
<path d="M171.538 12.1134L174.378 8.27715H171.946L168.114 13.4362V3.8551L165.857 5.02676V19.7858H168.114V16.5354L169.943 14.1921L172.51 19.7858L175 19.8047L171.538 12.1134Z" fill="#091B3A"/>
<path d="M51.9981 8.14486C51.5507 8.20155 50.9671 8.37163 50.6169 8.57951C50.0917 8.90077 49.8582 9.08974 49.7026 9.25982L49.7221 8.27714H47.3877V8.6362V19.7858H49.7221C49.7221 19.7858 49.7221 14.2677 49.7221 13.5685C49.7415 12.189 50.15 10.7527 51.3367 10.2425C52.1926 9.86455 53.5154 10.1669 54.0212 10.696C54.5853 11.2819 54.7799 12.2079 54.7993 13.2283C54.7993 14.1543 54.7799 19.7858 54.7799 19.7858H57.1142V13.1716C57.1142 11.7732 56.9003 10.3559 56.0054 9.35431C55.0133 8.22045 53.671 7.97478 51.9981 8.14486Z" fill="#091B3A"/>
<path d="M106.467 14.3433C104.969 13.0582 102.771 12.7748 101.701 11.9433C100.748 11.2063 101.195 10.0724 102.771 10.0535C104.599 10.0346 105.494 10.9039 105.864 10.9606L106.817 9.24091C105.825 8.69288 105.261 8.35272 103.977 8.12595C101.856 7.7669 99.0163 8.39052 98.8996 10.885C98.8218 12.6614 99.4832 13.3228 100.709 14.0598L102.771 14.948C103.549 15.2126 105.008 15.7228 105.047 16.6677C105.125 18.2929 102.323 18.1795 100.825 17.537C100.592 17.4425 99.2498 16.611 99.2498 16.611C99.0358 16.8756 98.2188 18.3496 98.2188 18.3496C99.0552 18.8598 100.125 19.5401 101.215 19.7858C103.199 20.2204 106.272 20.0315 107.07 17.9716C107.537 16.8567 107.459 15.1748 106.467 14.3433Z" fill="#091B3A"/>
<path d="M94.5035 8.12597C93.1223 8.37164 92.5193 9.10864 92.4804 9.24093V8.29605H90.146C90.146 8.29605 90.1655 18.3496 90.1655 19.7858H92.4998V12.9449C92.5387 12.0189 92.9083 11.0551 93.5697 10.6582C93.9783 10.4126 94.5035 10.2236 95.1454 10.2614C96.1765 10.2992 96.5655 10.5638 96.5655 10.5638L97.188 8.57951C96.6239 8.10707 95.4178 7.97479 94.5035 8.12597Z" fill="#091B3A"/>
<path d="M122.302 19.7858H124.636V3.8551L122.302 5.06455V19.7858Z" fill="#091B3A"/>
<path d="M60.2271 19.7858H62.542V8.27715H60.2271V19.7858Z" fill="#091B3A"/>
<path d="M60.9663 3.98739C59.0016 4.61101 60.0326 7.25668 61.8028 6.74645C63.7092 6.17952 62.8144 3.40156 60.9663 3.98739Z" fill="#091B3A"/>
<path d="M41.6492 4.49763C41.6492 4.49763 41.6492 10.1858 41.6492 12.8315C41.6492 15.3071 41.1629 17.7071 38.0504 17.7071C34.9379 17.7071 34.4321 15.3071 34.4321 12.8315C34.4321 10.1858 34.4321 4.49763 34.4321 4.49763L32.0005 4.47873C32.0005 4.47873 32.0005 7.76692 32.0005 9.5244C32.0005 11.2441 32.0005 13.474 32.2145 15.0425C32.3896 16.2898 33.0121 17.8772 33.9653 18.652C34.1209 18.7842 34.2765 18.8976 34.4321 19.011C34.9185 19.3512 35.4048 19.5968 36.0078 19.7669C36.572 19.9181 37.2334 19.9937 38.0699 19.9937C38.8869 19.9937 39.5483 19.9181 40.1319 19.7669C40.7155 19.5968 41.2213 19.3512 41.7076 19.011C41.8632 18.8976 42.0188 18.7842 42.1745 18.652C43.1277 17.8583 43.7502 16.2898 43.9252 15.0425C44.1392 13.474 44.1392 11.2441 44.1392 9.5244C44.1392 7.78582 44.1392 4.47873 44.1392 4.47873L41.6492 4.49763Z" fill="#091B3A"/>
<path d="M73.3385 8.27715L70.5567 17.0079H70.4011C70.1677 16.4787 67.4637 8.27715 67.4637 8.27715H65.1099L69.3117 19.7669H71.5488C71.5488 19.7669 75.6534 8.73069 75.6729 8.27715C75.6923 8.27715 73.358 8.27715 73.3385 8.27715Z" fill="#091B3A"/>
<path d="M114.773 17.7638C113.84 18.0472 112.887 17.9716 112.167 17.4992C111.564 17.1212 111.252 15.9307 111.719 15.2315C112.167 14.5701 112.906 14.3433 113.976 14.3433C114.754 14.3433 115.941 14.4567 116.563 14.8346L116.583 16.4598C116.194 17.0268 115.61 17.5181 114.773 17.7638ZM118.042 9.37322C117.205 8.46613 116.057 8.06928 114.735 8.05038C113.704 8.03148 113.139 8.10707 112.283 8.27715C111.739 8.39054 110.747 8.76849 110.474 9.07085L111.272 10.6772C111.272 10.6772 112.206 10.2614 112.575 10.1669C113.159 10.0157 114.482 9.92125 115.046 10.0724C116.369 10.4315 116.719 11.2252 116.583 12.7748C116.427 12.7559 115.727 12.5102 115.435 12.4724C114.949 12.3968 114.559 12.359 114.054 12.359C112.575 12.359 110.591 12.8126 109.832 14.1165C108.996 15.5338 109.19 17.6315 110.202 18.6898C110.63 19.1433 111.233 19.5779 112.069 19.8047C113.256 20.1449 114.754 19.9181 115.746 19.2756C115.902 19.1811 116.622 18.6898 116.622 18.6898V19.748H118.878C118.878 19.748 118.878 15.3638 118.878 14.5134C118.859 12.8693 119.092 10.5071 118.042 9.37322Z" fill="#091B3A"/>
<path d="M157.843 8.14485C157.395 8.20154 156.812 8.37162 156.462 8.57949C155.936 8.90075 155.703 9.08973 155.547 9.25981L155.567 8.27713H153.232V8.63618V19.7858H155.567C155.567 19.7858 155.567 14.2677 155.567 13.5685C155.586 12.1889 155.995 10.7527 157.181 10.2425C158.037 9.86453 159.38 10.1669 159.885 10.696C160.45 11.2819 160.644 12.2078 160.644 13.2283C160.644 14.1543 160.625 19.7858 160.625 19.7858H162.959V13.1716C162.959 11.7732 162.745 10.3559 161.85 9.35429C160.858 8.22044 159.535 7.97477 157.843 8.14485Z" fill="#091B3A"/>
<path fill-rule="evenodd" clip-rule="evenodd" d="M87.3444 14.8346C87.6362 14.0409 87.2471 11.5464 86.7413 10.6016C86.0605 9.37321 85.4185 8.78739 84.1152 8.22046C83.1036 7.78581 80.9832 7.93699 79.8355 8.56061C76.3923 10.4504 76.3923 16.5921 79.0768 18.9165C81.1194 20.6551 84.368 20.5039 86.3912 18.6331L85.0684 17.159L83.9401 17.7827C80.9832 19.0299 79.3102 16.252 79.5048 14.8535L87.3444 14.8346ZM85.0294 12.9827H79.5048C79.5048 12.9827 79.5048 12.8126 79.5242 12.6992C79.6604 12.0189 79.8549 11.3764 80.3023 10.8661C81.4306 9.58109 83.7845 9.84565 84.6209 11.3386C84.8544 11.7543 85.0684 12.4157 85.0294 12.9827Z" fill="#091B3A"/>
</svg>
