<svg width="69" height="69" viewBox="0 0 69 69" fill="none" xmlns="http://www.w3.org/2000/svg">
<g clip-path="url(#clip0_822_19580)">
<path fill-rule="evenodd" clip-rule="evenodd" d="M58.5359 7.35708C58.4322 7.18837 58.3113 7.0346 58.1728 6.89628C54.531 3.25747 40.1387 11.7382 26.0267 25.8386C11.9146 39.939 3.42688 54.3195 7.06869 57.9583L10.7779 61.6644C14.4197 65.3032 28.812 56.8224 42.924 42.722C57.0361 28.6216 65.5238 14.2412 61.882 10.6024L58.585 7.30807L58.5359 7.35708Z" fill="url(#paint0_linear_822_19580)"/>
<path d="M39.2149 39.0159C53.3269 24.9155 61.8147 10.5351 58.1728 6.89628C54.531 3.25748 40.1387 11.7383 26.0267 25.8386C11.9147 39.939 3.42688 54.3195 7.06869 57.9583C10.7105 61.5971 25.1028 53.1163 39.2149 39.0159Z" fill="url(#paint1_linear_822_19580)"/>
<g filter="url(#filter0_i_822_19580)">
<path d="M38.3905 38.1924C51.8197 24.7743 60.0307 11.2235 56.7303 7.92586C53.4299 4.62819 39.8679 12.8324 26.4387 26.2505C13.0095 39.6686 4.79854 53.2194 8.09894 56.5171C11.3993 59.8148 24.9613 51.6105 38.3905 38.1924Z" fill="url(#paint2_linear_822_19580)"/>
</g>
<g filter="url(#filter1_i_822_19580)">
<path d="M37.9783 38.6041C51.1799 25.4135 59.3909 12.2314 56.3181 9.16114C53.2454 6.09089 40.0524 14.2951 26.8508 27.4858C13.6493 40.6765 5.43825 53.8586 8.51102 56.9288C11.5838 59.999 24.7768 51.7948 37.9783 38.6041Z" fill="url(#paint3_linear_822_19580)"/>
</g>
<g filter="url(#filter2_i_822_19580)">
<g filter="url(#filter3_d_822_19580)">
<path fill-rule="evenodd" clip-rule="evenodd" d="M36.0761 23.5262L35.9177 23.3679L35.0934 22.5443L28.7317 28.9008L27.4214 32.1738L27.5642 32.0311L27.469 32.2214L28.2457 32.9974L28.2933 33.045L28.7218 32.5216L34.6074 26.6409L36.5096 28.5415L37.3339 29.3651L38.6441 26.0921L37.8199 25.2685L36.9004 24.3498L36.0761 23.5262ZM33.857 29.5448L33.0328 28.7212L26.671 35.0777L25.3608 38.3507L25.4679 38.2436L25.4084 38.3982L26.185 39.1743L26.2326 39.2218L26.6612 38.6985L32.5468 32.8177L34.449 34.7184L35.2732 35.5419L36.5835 32.2689L35.7592 31.4454L34.8398 30.5267L34.0155 29.7031L33.857 29.5448Z" fill="#B26912"/>
</g>
</g>
<path d="M36.0764 23.5262L35.0937 22.5443L28.7319 28.9008L27.4217 32.1738L33.7834 25.8173L36.5099 28.5415L37.8202 25.2685L36.0764 23.5262Z" fill="url(#paint4_linear_822_19580)"/>
<path d="M34.0154 29.703L33.0327 28.7211L26.6709 35.0776L25.3607 38.3506L31.7224 31.994L34.4489 34.7182L35.7591 31.4453L34.0154 29.703Z" fill="url(#paint5_linear_822_19580)"/>
</g>
<defs>
<filter id="filter0_i_822_19580" x="6.36963" y="6.19702" width="51.0898" height="51.0488" filterUnits="userSpaceOnUse" color-interpolation-filters="sRGB">
<feFlood flood-opacity="0" result="BackgroundImageFix"/>
<feBlend mode="normal" in="SourceGraphic" in2="BackgroundImageFix" result="shape"/>
<feColorMatrix in="SourceAlpha" type="matrix" values="0 0 0 0 0 0 0 0 0 0 0 0 0 0 0 0 0 0 127 0" result="hardAlpha"/>
<feOffset dx="-1" dy="-1"/>
<feGaussianBlur stdDeviation="0.5"/>
<feComposite in2="hardAlpha" operator="arithmetic" k2="-1" k3="1"/>
<feColorMatrix type="matrix" values="0 0 0 0 0.717647 0 0 0 0 0.443137 0 0 0 0 0.113725 0 0 0 0.1 0"/>
<feBlend mode="normal" in2="shape" result="effect1_innerShadow_822_19580"/>
</filter>
<filter id="filter1_i_822_19580" x="6.8667" y="7.51733" width="50.0957" height="50.0554" filterUnits="userSpaceOnUse" color-interpolation-filters="sRGB">
<feFlood flood-opacity="0" result="BackgroundImageFix"/>
<feBlend mode="normal" in="SourceGraphic" in2="BackgroundImageFix" result="shape"/>
<feColorMatrix in="SourceAlpha" type="matrix" values="0 0 0 0 0 0 0 0 0 0 0 0 0 0 0 0 0 0 127 0" result="hardAlpha"/>
<feOffset dx="-1" dy="-1"/>
<feGaussianBlur stdDeviation="0.5"/>
<feComposite in2="hardAlpha" operator="arithmetic" k2="-1" k3="1"/>
<feColorMatrix type="matrix" values="0 0 0 0 0.717647 0 0 0 0 0.443137 0 0 0 0 0.113725 0 0 0 0.1 0"/>
<feBlend mode="normal" in2="shape" result="effect1_innerShadow_822_19580"/>
</filter>
<filter id="filter2_i_822_19580" x="25.3608" y="22.5444" width="13.7832" height="16.6775" filterUnits="userSpaceOnUse" color-interpolation-filters="sRGB">
<feFlood flood-opacity="0" result="BackgroundImageFix"/>
<feBlend mode="normal" in="SourceGraphic" in2="BackgroundImageFix" result="shape"/>
<feColorMatrix in="SourceAlpha" type="matrix" values="0 0 0 0 0 0 0 0 0 0 0 0 0 0 0 0 0 0 127 0" result="hardAlpha"/>
<feOffset dx="1"/>
<feGaussianBlur stdDeviation="0.25"/>
<feComposite in2="hardAlpha" operator="arithmetic" k2="-1" k3="1"/>
<feColorMatrix type="matrix" values="0 0 0 0 0.698039 0 0 0 0 0.411765 0 0 0 0 0.0705882 0 0 0 0.28 0"/>
<feBlend mode="normal" in2="shape" result="effect1_innerShadow_822_19580"/>
</filter>
<filter id="filter3_d_822_19580" x="25.3608" y="21.5444" width="15.7832" height="18.6775" filterUnits="userSpaceOnUse" color-interpolation-filters="sRGB">
<feFlood flood-opacity="0" result="BackgroundImageFix"/>
<feColorMatrix in="SourceAlpha" type="matrix" values="0 0 0 0 0 0 0 0 0 0 0 0 0 0 0 0 0 0 127 0" result="hardAlpha"/>
<feOffset dx="1.5"/>
<feGaussianBlur stdDeviation="0.5"/>
<feComposite in2="hardAlpha" operator="out"/>
<feColorMatrix type="matrix" values="0 0 0 0 0.546094 0 0 0 0 0.29741 0 0 0 0 0.00103408 0 0 0 0.26 0"/>
<feBlend mode="normal" in2="BackgroundImageFix" result="effect1_dropShadow_822_19580"/>
<feBlend mode="normal" in="SourceGraphic" in2="effect1_dropShadow_822_19580" result="shape"/>
</filter>
<linearGradient id="paint0_linear_822_19580" x1="8.30509" y1="59.1936" x2="59.7795" y2="8.50096" gradientUnits="userSpaceOnUse">
<stop stop-color="#CC9949"/>
<stop offset="0.212897" stop-color="#FEECB2"/>
<stop offset="0.569511" stop-color="#B26912"/>
<stop offset="0.83157" stop-color="#FDF0AD"/>
<stop offset="0.95698" stop-color="#FEEFAF"/>
<stop offset="1" stop-color="#FEE692"/>
</linearGradient>
<linearGradient id="paint1_linear_822_19580" x1="56.3183" y1="6.2786" x2="8.96439" y2="56.1442" gradientUnits="userSpaceOnUse">
<stop stop-color="#D6AA5C"/>
<stop offset="0.268452" stop-color="#FFE9C3"/>
<stop offset="0.523676" stop-color="#E4C284"/>
<stop offset="0.763273" stop-color="#F1C06A"/>
<stop offset="1" stop-color="#E5C57B"/>
</linearGradient>
<linearGradient id="paint2_linear_822_19580" x1="11.1899" y1="39.4278" x2="48.0685" y2="52.8305" gradientUnits="userSpaceOnUse">
<stop stop-color="#CD9A4A"/>
<stop offset="0.226783" stop-color="#FDEFAD"/>
<stop offset="0.419503" stop-color="#DFA956"/>
<stop offset="0.638266" stop-color="#E2BF75"/>
<stop offset="0.825777" stop-color="#F2DC96"/>
<stop offset="1" stop-color="#F3DF99"/>
</linearGradient>
<linearGradient id="paint3_linear_822_19580" x1="9.12922" y1="40.6631" x2="58.7199" y2="48.8982" gradientUnits="userSpaceOnUse">
<stop offset="0.0388243" stop-color="#DFAA56"/>
<stop offset="0.183802" stop-color="#EFCD7E"/>
<stop offset="0.36779" stop-color="#E2BF75"/>
<stop offset="0.647774" stop-color="#FDEDAA"/>
<stop offset="0.780753" stop-color="#F2DC96"/>
<stop offset="0.94026" stop-color="#D4A759"/>
</linearGradient>
<linearGradient id="paint4_linear_822_19580" x1="30.7663" y1="26.8681" x2="34.4724" y2="30.5773" gradientUnits="userSpaceOnUse">
<stop offset="0.0444807" stop-color="#FEE692"/>
<stop offset="0.455963" stop-color="#FFF3CA"/>
<stop offset="1" stop-color="#FEE692"/>
</linearGradient>
<linearGradient id="paint5_linear_822_19580" x1="28.7053" y1="33.0449" x2="32.4114" y2="36.754" gradientUnits="userSpaceOnUse">
<stop offset="0.0444807" stop-color="#FEE692"/>
<stop offset="0.455963" stop-color="#FFF3CA"/>
<stop offset="1" stop-color="#FEE692"/>
</linearGradient>
<clipPath id="clip0_822_19580">
<rect width="72.2424" height="23.8866" fill="white" transform="matrix(0.707399 -0.706815 0.707399 0.706815 0.474609 51.3696)"/>
</clipPath>
</defs>
</svg>
