<svg width="154" height="114" viewBox="0 0 154 114" fill="none" xmlns="http://www.w3.org/2000/svg">
<g clip-path="url(#clip0_822_19541)" filter="url(#filter0_f_822_19541)">
<path fill-rule="evenodd" clip-rule="evenodd" d="M143.262 91.4445C143.541 91.1501 143.781 90.8296 143.982 90.4826C149.255 81.3558 124.837 57.4043 89.4411 36.9855C54.0454 16.5666 21.0764 7.41267 15.8026 16.5395L10.4314 25.8351C5.15761 34.962 29.5762 58.9134 64.9719 79.3323C100.368 99.7512 133.337 108.905 138.61 99.7783L143.385 91.5155L143.262 91.4445Z" fill="url(#paint0_linear_822_19541)"/>
<path d="M70.3432 70.0367C105.739 90.4555 138.708 99.6095 143.982 90.4826C149.255 81.3558 124.837 57.4043 89.4411 36.9855C54.0454 16.5667 21.0764 7.41267 15.8026 16.5395C10.5289 25.6663 34.9476 49.6178 70.3432 70.0367Z" fill="url(#paint1_linear_822_19541)"/>
<g filter="url(#filter1_i_822_19541)">
<path d="M71.5369 67.9709C105.22 87.4018 136.4 96.4484 141.179 88.1772C145.958 79.9061 122.527 57.4491 88.8444 38.0183C55.1614 18.5875 23.9816 9.54082 19.2022 17.812C14.4229 26.0832 37.854 48.5401 71.5369 67.9709Z" fill="url(#paint2_linear_822_19541)"/>
</g>
<g filter="url(#filter2_i_822_19541)">
<path d="M70.503 67.3746C103.615 86.4761 134.065 95.7182 138.515 88.0174C142.964 80.3167 119.729 58.5892 86.6168 39.4877C53.5047 20.3862 23.0549 11.1441 18.6052 18.8448C14.1555 26.5456 37.3909 48.2731 70.503 67.3746Z" fill="url(#paint3_linear_822_19541)"/>
</g>
<g filter="url(#filter3_i_822_19541)">
<g filter="url(#filter4_d_822_19541)">
<path fill-rule="evenodd" clip-rule="evenodd" d="M99.3458 55.6229L99.5753 55.2258L100.769 53.1601L84.8123 43.9552L77.6381 43.1003L77.9964 43.3069L77.5691 43.2196L76.4444 45.166L76.3755 45.2853L77.6388 45.855L92.401 54.3709L89.6464 59.138L88.4528 61.2037L95.6271 62.0586L96.8207 59.9929L98.1522 57.6886L99.3458 55.6229ZM86.2542 54.4269L87.4478 52.3612L71.4913 43.1563L64.317 42.3014L64.5858 42.4564L64.2481 42.4207L63.1234 44.3671L63.0544 44.4864L64.3177 45.0561L79.0799 53.572L76.3253 58.3391L75.1317 60.4048L82.306 61.2597L83.4996 59.194L84.8311 56.8897L86.0247 54.824L86.2542 54.4269Z" fill="#B26912"/>
</g>
</g>
<path d="M99.3457 55.6229L100.769 53.1601L84.8122 43.9552L77.638 43.1002L93.5945 52.3051L89.6463 59.138L96.8206 59.9929L99.3457 55.6229Z" fill="url(#paint4_linear_822_19541)"/>
<path d="M86.0249 54.8241L87.448 52.3613L71.4914 43.1563L64.3171 42.3015L80.2737 51.5064L76.3255 58.3392L83.4998 59.1941L86.0249 54.8241Z" fill="url(#paint5_linear_822_19541)"/>
</g>
<defs>
<filter id="filter0_f_822_19541" x="-3.11768" y="-3.98608" width="160.648" height="124.29" filterUnits="userSpaceOnUse" color-interpolation-filters="sRGB">
<feFlood flood-opacity="0" result="BackgroundImageFix"/>
<feBlend mode="normal" in="SourceGraphic" in2="BackgroundImageFix" result="shape"/>
<feGaussianBlur stdDeviation="2" result="effect1_foregroundBlur_822_19541"/>
</filter>
<filter id="filter1_i_822_19541" x="17.5835" y="13.7473" width="124.214" height="77.4946" filterUnits="userSpaceOnUse" color-interpolation-filters="sRGB">
<feFlood flood-opacity="0" result="BackgroundImageFix"/>
<feBlend mode="normal" in="SourceGraphic" in2="BackgroundImageFix" result="shape"/>
<feColorMatrix in="SourceAlpha" type="matrix" values="0 0 0 0 0 0 0 0 0 0 0 0 0 0 0 0 0 0 127 0" result="hardAlpha"/>
<feOffset dx="-1" dy="-1"/>
<feGaussianBlur stdDeviation="0.5"/>
<feComposite in2="hardAlpha" operator="arithmetic" k2="-1" k3="1"/>
<feColorMatrix type="matrix" values="0 0 0 0 0.717647 0 0 0 0 0.443137 0 0 0 0 0.113725 0 0 0 0.1 0"/>
<feBlend mode="normal" in2="shape" result="effect1_innerShadow_822_19541"/>
</filter>
<filter id="filter2_i_822_19541" x="17.0591" y="15.1301" width="122.001" height="75.6021" filterUnits="userSpaceOnUse" color-interpolation-filters="sRGB">
<feFlood flood-opacity="0" result="BackgroundImageFix"/>
<feBlend mode="normal" in="SourceGraphic" in2="BackgroundImageFix" result="shape"/>
<feColorMatrix in="SourceAlpha" type="matrix" values="0 0 0 0 0 0 0 0 0 0 0 0 0 0 0 0 0 0 127 0" result="hardAlpha"/>
<feOffset dx="-1" dy="-1"/>
<feGaussianBlur stdDeviation="0.5"/>
<feComposite in2="hardAlpha" operator="arithmetic" k2="-1" k3="1"/>
<feColorMatrix type="matrix" values="0 0 0 0 0.717647 0 0 0 0 0.443137 0 0 0 0 0.113725 0 0 0 0.1 0"/>
<feBlend mode="normal" in2="shape" result="effect1_innerShadow_822_19541"/>
</filter>
<filter id="filter3_i_822_19541" x="63.0547" y="42.3013" width="38.2144" height="19.7573" filterUnits="userSpaceOnUse" color-interpolation-filters="sRGB">
<feFlood flood-opacity="0" result="BackgroundImageFix"/>
<feBlend mode="normal" in="SourceGraphic" in2="BackgroundImageFix" result="shape"/>
<feColorMatrix in="SourceAlpha" type="matrix" values="0 0 0 0 0 0 0 0 0 0 0 0 0 0 0 0 0 0 127 0" result="hardAlpha"/>
<feOffset dx="1"/>
<feGaussianBlur stdDeviation="0.25"/>
<feComposite in2="hardAlpha" operator="arithmetic" k2="-1" k3="1"/>
<feColorMatrix type="matrix" values="0 0 0 0 0.698039 0 0 0 0 0.411765 0 0 0 0 0.0705882 0 0 0 0.28 0"/>
<feBlend mode="normal" in2="shape" result="effect1_innerShadow_822_19541"/>
</filter>
<filter id="filter4_d_822_19541" x="63.0547" y="41.3013" width="40.2144" height="21.7573" filterUnits="userSpaceOnUse" color-interpolation-filters="sRGB">
<feFlood flood-opacity="0" result="BackgroundImageFix"/>
<feColorMatrix in="SourceAlpha" type="matrix" values="0 0 0 0 0 0 0 0 0 0 0 0 0 0 0 0 0 0 127 0" result="hardAlpha"/>
<feOffset dx="1.5"/>
<feGaussianBlur stdDeviation="0.5"/>
<feComposite in2="hardAlpha" operator="out"/>
<feColorMatrix type="matrix" values="0 0 0 0 0.546094 0 0 0 0 0.29741 0 0 0 0 0.00103408 0 0 0 0.26 0"/>
<feBlend mode="normal" in2="BackgroundImageFix" result="effect1_dropShadow_822_19541"/>
<feBlend mode="normal" in="SourceGraphic" in2="effect1_dropShadow_822_19541" result="shape"/>
</filter>
<linearGradient id="paint0_linear_822_19541" x1="14.0122" y1="19.638" x2="141.54" y2="94.706" gradientUnits="userSpaceOnUse">
<stop stop-color="#CC9949"/>
<stop offset="0.212897" stop-color="#FEECB2"/>
<stop offset="0.569511" stop-color="#B26912"/>
<stop offset="0.83157" stop-color="#FDF0AD"/>
<stop offset="0.95698" stop-color="#FEEFAF"/>
<stop offset="1" stop-color="#FEE692"/>
</linearGradient>
<linearGradient id="paint1_linear_822_19541" x1="144.222" y1="86.4896" x2="20.501" y2="19.1372" gradientUnits="userSpaceOnUse">
<stop stop-color="#D6AA5C"/>
<stop offset="0.268452" stop-color="#FFE9C3"/>
<stop offset="0.523676" stop-color="#E4C284"/>
<stop offset="0.763273" stop-color="#F1C06A"/>
<stop offset="1" stop-color="#E5C57B"/>
</linearGradient>
<linearGradient id="paint2_linear_822_19541" x1="54.6737" y1="14.8633" x2="47.7403" y2="94.8631" gradientUnits="userSpaceOnUse">
<stop stop-color="#CD9A4A"/>
<stop offset="0.226783" stop-color="#FDEFAD"/>
<stop offset="0.419503" stop-color="#DFA956"/>
<stop offset="0.638266" stop-color="#E2BF75"/>
<stop offset="0.825777" stop-color="#F2DC96"/>
<stop offset="1" stop-color="#F3DF99"/>
</linearGradient>
<linearGradient id="paint3_linear_822_19541" x1="51.1354" y1="11.4452" x2="61.128" y2="113.826" gradientUnits="userSpaceOnUse">
<stop offset="0.0388243" stop-color="#DFAA56"/>
<stop offset="0.183802" stop-color="#EFCD7E"/>
<stop offset="0.36779" stop-color="#E2BF75"/>
<stop offset="0.647774" stop-color="#FDEDAA"/>
<stop offset="0.780753" stop-color="#F2DC96"/>
<stop offset="0.94026" stop-color="#D4A759"/>
</linearGradient>
<linearGradient id="paint4_linear_822_19541" x1="89.9149" y1="46.8988" x2="84.5503" y2="56.1982" gradientUnits="userSpaceOnUse">
<stop offset="0.0444807" stop-color="#FEE692"/>
<stop offset="0.455963" stop-color="#FFF3CA"/>
<stop offset="1" stop-color="#FEE692"/>
</linearGradient>
<linearGradient id="paint5_linear_822_19541" x1="76.5941" y1="46.0999" x2="71.2295" y2="55.3994" gradientUnits="userSpaceOnUse">
<stop offset="0.0444807" stop-color="#FEE692"/>
<stop offset="0.455963" stop-color="#FFF3CA"/>
<stop offset="1" stop-color="#FEE692"/>
</linearGradient>
<clipPath id="clip0_822_19541">
<rect width="147.978" height="48.908" fill="white" transform="matrix(0.866204 0.499691 -0.50031 0.865847 25.3516 0.013916)"/>
</clipPath>
</defs>
</svg>
