<svg width="76" height="58" viewBox="0 0 76 58" fill="none" xmlns="http://www.w3.org/2000/svg">
<g clip-path="url(#clip0_822_19527)" filter="url(#filter0_f_822_19527)">
<path fill-rule="evenodd" clip-rule="evenodd" d="M70.4494 45.1068C70.5856 44.963 70.703 44.8065 70.8008 44.6371C73.376 40.1805 61.4524 28.4851 44.1688 18.5146C26.8851 8.54408 10.7865 4.07422 8.2113 8.53083L5.58852 13.0699C3.01336 17.5265 14.9369 29.2219 32.2206 39.1924C49.5042 49.1629 65.6029 53.6328 68.1781 49.1762L70.5094 45.1415L70.4494 45.1068Z" fill="url(#paint0_linear_822_19527)"/>
<path d="M34.8434 34.6534C52.127 44.6239 68.2257 49.0937 70.8008 44.6371C73.376 40.1805 61.4524 28.485 44.1688 18.5146C26.8852 8.54409 10.7865 4.07422 8.2113 8.53083C5.63615 12.9874 17.5597 24.6829 34.8434 34.6534Z" fill="url(#paint1_linear_822_19527)"/>
<g filter="url(#filter1_i_822_19527)">
<path d="M35.426 33.6448C51.8733 43.1328 67.0984 47.5503 69.4321 43.5115C71.7658 39.4727 60.3245 28.507 43.8772 19.019C27.4299 9.53093 12.2048 5.11345 9.87109 9.15226C7.53736 13.1911 18.9787 24.1567 35.426 33.6448Z" fill="url(#paint2_linear_822_19527)"/>
</g>
<g filter="url(#filter2_i_822_19527)">
<path d="M34.9216 33.3535C51.0901 42.6807 65.9587 47.1936 68.1315 43.4333C70.3043 39.673 58.9585 29.0635 42.7899 19.7363C26.6214 10.4091 11.7528 5.8962 9.57999 9.65646C7.40721 13.4167 18.753 24.0262 34.9216 33.3535Z" fill="url(#paint3_linear_822_19527)"/>
</g>
<g filter="url(#filter3_i_822_19527)">
<g filter="url(#filter4_d_822_19527)">
<path fill-rule="evenodd" clip-rule="evenodd" d="M49.0052 27.6151L49.1173 27.4212L49.7001 26.4126L41.9086 21.9178L38.4054 21.5004L38.5803 21.6013L38.3717 21.5586L37.8225 22.5091L37.7889 22.5673L38.4057 22.8455L45.6141 27.0038L44.269 29.3316L43.6862 30.3402L47.1894 30.7577L47.7722 29.749L48.4224 28.6238L49.0052 27.6151ZM42.6126 27.0311L43.1955 26.0225L35.4039 21.5277L31.9007 21.1103L32.032 21.186L31.8671 21.1685L31.3179 22.1189L31.2842 22.1772L31.9011 22.4554L39.1094 26.6137L37.7644 28.9415L37.1816 29.9501L40.6847 30.3676L41.2676 29.3589L41.9177 28.2337L42.5006 27.225L42.6126 27.0311Z" fill="#B26912"/>
</g>
</g>
<path d="M49.0051 27.6152L49.6999 26.4126L41.9084 21.9179L38.4052 21.5004L46.1968 25.9952L44.2689 29.3316L47.7721 29.7491L49.0051 27.6152Z" fill="url(#paint4_linear_822_19527)"/>
<path d="M42.5007 27.2251L43.1955 26.0225L35.404 21.5278L31.9008 21.1103L39.6924 25.605L37.7645 28.9415L41.2677 29.3589L42.5007 27.2251Z" fill="url(#paint5_linear_822_19527)"/>
</g>
<defs>
<filter id="filter0_f_822_19527" x="-3.07422" y="-3.53857" width="82.5376" height="64.7842" filterUnits="userSpaceOnUse" color-interpolation-filters="sRGB">
<feFlood flood-opacity="0" result="BackgroundImageFix"/>
<feBlend mode="normal" in="SourceGraphic" in2="BackgroundImageFix" result="shape"/>
<feGaussianBlur stdDeviation="2" result="effect1_foregroundBlur_822_19527"/>
</filter>
<filter id="filter1_i_822_19527" x="8.56885" y="6.65576" width="61.1655" height="38.3523" filterUnits="userSpaceOnUse" color-interpolation-filters="sRGB">
<feFlood flood-opacity="0" result="BackgroundImageFix"/>
<feBlend mode="normal" in="SourceGraphic" in2="BackgroundImageFix" result="shape"/>
<feColorMatrix in="SourceAlpha" type="matrix" values="0 0 0 0 0 0 0 0 0 0 0 0 0 0 0 0 0 0 127 0" result="hardAlpha"/>
<feOffset dx="-1" dy="-1"/>
<feGaussianBlur stdDeviation="0.5"/>
<feComposite in2="hardAlpha" operator="arithmetic" k2="-1" k3="1"/>
<feColorMatrix type="matrix" values="0 0 0 0 0.717647 0 0 0 0 0.443137 0 0 0 0 0.113725 0 0 0 0.1 0"/>
<feBlend mode="normal" in2="shape" result="effect1_innerShadow_822_19527"/>
</filter>
<filter id="filter2_i_822_19527" x="8.31348" y="7.33081" width="60.0845" height="37.4282" filterUnits="userSpaceOnUse" color-interpolation-filters="sRGB">
<feFlood flood-opacity="0" result="BackgroundImageFix"/>
<feBlend mode="normal" in="SourceGraphic" in2="BackgroundImageFix" result="shape"/>
<feColorMatrix in="SourceAlpha" type="matrix" values="0 0 0 0 0 0 0 0 0 0 0 0 0 0 0 0 0 0 127 0" result="hardAlpha"/>
<feOffset dx="-1" dy="-1"/>
<feGaussianBlur stdDeviation="0.5"/>
<feComposite in2="hardAlpha" operator="arithmetic" k2="-1" k3="1"/>
<feColorMatrix type="matrix" values="0 0 0 0 0.717647 0 0 0 0 0.443137 0 0 0 0 0.113725 0 0 0 0.1 0"/>
<feBlend mode="normal" in2="shape" result="effect1_innerShadow_822_19527"/>
</filter>
<filter id="filter3_i_822_19527" x="31.2842" y="21.1104" width="18.916" height="9.64722" filterUnits="userSpaceOnUse" color-interpolation-filters="sRGB">
<feFlood flood-opacity="0" result="BackgroundImageFix"/>
<feBlend mode="normal" in="SourceGraphic" in2="BackgroundImageFix" result="shape"/>
<feColorMatrix in="SourceAlpha" type="matrix" values="0 0 0 0 0 0 0 0 0 0 0 0 0 0 0 0 0 0 127 0" result="hardAlpha"/>
<feOffset dx="1"/>
<feGaussianBlur stdDeviation="0.25"/>
<feComposite in2="hardAlpha" operator="arithmetic" k2="-1" k3="1"/>
<feColorMatrix type="matrix" values="0 0 0 0 0.698039 0 0 0 0 0.411765 0 0 0 0 0.0705882 0 0 0 0.28 0"/>
<feBlend mode="normal" in2="shape" result="effect1_innerShadow_822_19527"/>
</filter>
<filter id="filter4_d_822_19527" x="31.2842" y="20.1104" width="20.916" height="11.6472" filterUnits="userSpaceOnUse" color-interpolation-filters="sRGB">
<feFlood flood-opacity="0" result="BackgroundImageFix"/>
<feColorMatrix in="SourceAlpha" type="matrix" values="0 0 0 0 0 0 0 0 0 0 0 0 0 0 0 0 0 0 127 0" result="hardAlpha"/>
<feOffset dx="1.5"/>
<feGaussianBlur stdDeviation="0.5"/>
<feComposite in2="hardAlpha" operator="out"/>
<feColorMatrix type="matrix" values="0 0 0 0 0.546094 0 0 0 0 0.29741 0 0 0 0 0.00103408 0 0 0 0.26 0"/>
<feBlend mode="normal" in2="BackgroundImageFix" result="effect1_dropShadow_822_19527"/>
<feBlend mode="normal" in="SourceGraphic" in2="effect1_dropShadow_822_19527" result="shape"/>
</filter>
<linearGradient id="paint0_linear_822_19527" x1="7.33704" y1="10.0438" x2="69.6087" y2="46.6994" gradientUnits="userSpaceOnUse">
<stop stop-color="#CC9949"/>
<stop offset="0.212897" stop-color="#FEECB2"/>
<stop offset="0.569511" stop-color="#B26912"/>
<stop offset="0.83157" stop-color="#FDF0AD"/>
<stop offset="0.95698" stop-color="#FEEFAF"/>
<stop offset="1" stop-color="#FEE692"/>
</linearGradient>
<linearGradient id="paint1_linear_822_19527" x1="70.918" y1="42.6873" x2="10.5055" y2="9.79929" gradientUnits="userSpaceOnUse">
<stop stop-color="#D6AA5C"/>
<stop offset="0.268452" stop-color="#FFE9C3"/>
<stop offset="0.523676" stop-color="#E4C284"/>
<stop offset="0.763273" stop-color="#F1C06A"/>
<stop offset="1" stop-color="#E5C57B"/>
</linearGradient>
<linearGradient id="paint2_linear_822_19527" x1="27.1917" y1="7.71241" x2="23.8061" y2="46.7761" gradientUnits="userSpaceOnUse">
<stop stop-color="#CD9A4A"/>
<stop offset="0.226783" stop-color="#FDEFAD"/>
<stop offset="0.419503" stop-color="#DFA956"/>
<stop offset="0.638266" stop-color="#E2BF75"/>
<stop offset="0.825777" stop-color="#F2DC96"/>
<stop offset="1" stop-color="#F3DF99"/>
</linearGradient>
<linearGradient id="paint3_linear_822_19527" x1="25.4644" y1="6.04322" x2="30.3438" y2="56.0355" gradientUnits="userSpaceOnUse">
<stop offset="0.0388243" stop-color="#DFAA56"/>
<stop offset="0.183802" stop-color="#EFCD7E"/>
<stop offset="0.36779" stop-color="#E2BF75"/>
<stop offset="0.647774" stop-color="#FDEDAA"/>
<stop offset="0.780753" stop-color="#F2DC96"/>
<stop offset="0.94026" stop-color="#D4A759"/>
</linearGradient>
<linearGradient id="paint4_linear_822_19527" x1="44.4" y1="23.3552" x2="41.7805" y2="27.8962" gradientUnits="userSpaceOnUse">
<stop offset="0.0444807" stop-color="#FEE692"/>
<stop offset="0.455963" stop-color="#FFF3CA"/>
<stop offset="1" stop-color="#FEE692"/>
</linearGradient>
<linearGradient id="paint5_linear_822_19527" x1="37.8956" y1="22.9651" x2="35.2761" y2="27.506" gradientUnits="userSpaceOnUse">
<stop offset="0.0444807" stop-color="#FEE692"/>
<stop offset="0.455963" stop-color="#FFF3CA"/>
<stop offset="1" stop-color="#FEE692"/>
</linearGradient>
<clipPath id="clip0_822_19527">
<rect width="72.2573" height="23.8817" fill="white" transform="matrix(0.866204 0.499691 -0.500309 0.865847 12.874 0.461426)"/>
</clipPath>
</defs>
</svg>
