<svg width="76" height="58" viewBox="0 0 76 58" fill="none" xmlns="http://www.w3.org/2000/svg">
<g clip-path="url(#clip0_822_19593)">
<path fill-rule="evenodd" clip-rule="evenodd" d="M70.3551 45.4916C70.4914 45.3478 70.6087 45.1913 70.7066 45.0219C73.2818 40.5653 61.3582 28.8698 44.0746 18.8993C26.7909 8.92884 10.6922 4.45899 8.11706 8.9156L5.49428 13.4546C2.91912 17.9113 14.8427 29.6067 32.1263 39.5772C49.41 49.5477 65.5087 54.0176 68.0838 49.5609L70.4152 45.5262L70.3551 45.4916Z" fill="url(#paint0_linear_822_19593)"/>
<path d="M34.7491 35.0381C52.0327 45.0086 68.1315 49.4785 70.7066 45.0219C73.2818 40.5653 61.3582 28.8698 44.0746 18.8993C26.7909 8.92886 10.6922 4.45899 8.11706 8.9156C5.54191 13.3722 17.4655 25.0677 34.7491 35.0381Z" fill="url(#paint1_linear_822_19593)"/>
<g filter="url(#filter0_i_822_19593)">
<path d="M35.3318 34.0295C51.7791 43.5176 67.0041 47.935 69.3379 43.8962C71.6716 39.8574 60.2303 28.8918 43.783 19.4037C27.3356 9.91569 12.1106 5.49822 9.77685 9.53702C7.44312 13.5758 18.8844 24.5415 35.3318 34.0295Z" fill="url(#paint2_linear_822_19593)"/>
</g>
<g filter="url(#filter1_i_822_19593)">
<path d="M34.8273 33.7382C50.9959 43.0654 65.8645 47.5783 68.0373 43.8181C70.21 40.0578 58.8642 29.4483 42.6957 20.1211C26.5271 10.7939 11.6585 6.28096 9.48575 10.0412C7.31297 13.8015 18.6588 24.411 34.8273 33.7382Z" fill="url(#paint3_linear_822_19593)"/>
</g>
<g filter="url(#filter2_i_822_19593)">
<g filter="url(#filter3_d_822_19593)">
<path fill-rule="evenodd" clip-rule="evenodd" d="M48.911 27.9999L49.023 27.806L49.6059 26.7973L41.8143 22.3026L38.3112 21.8851L38.4861 21.986L38.2775 21.9434L37.7283 22.8938L37.6946 22.9521L38.3115 23.2302L45.5199 27.3886L44.1748 29.7163L43.592 30.725L47.0952 31.1424L47.678 30.1338L48.3282 29.0086L48.911 27.9999ZM42.5184 27.4159L43.1012 26.4072L35.3097 21.9125L31.8065 21.495L31.9377 21.5707L31.7728 21.5533L31.2237 22.5037L31.19 22.562L31.8069 22.8401L39.0152 26.9984L37.6702 29.3262L37.0873 30.3349L40.5905 30.7523L41.1733 29.7437L41.8235 28.6185L42.4063 27.6098L42.5184 27.4159Z" fill="#B26912"/>
</g>
</g>
<path d="M48.9108 28L49.6057 26.7974L41.8142 22.3027L38.311 21.8852L46.1025 26.3799L44.1746 29.7164L47.6778 30.1338L48.9108 28Z" fill="url(#paint4_linear_822_19593)"/>
<path d="M42.4064 27.6098L43.1013 26.4073L35.3098 21.9125L31.8066 21.4951L39.5981 25.9898L37.6702 29.3263L41.1734 29.7437L42.4064 27.6098Z" fill="url(#paint5_linear_822_19593)"/>
</g>
<defs>
<filter id="filter0_i_822_19593" x="8.47461" y="7.04053" width="61.1655" height="38.3523" filterUnits="userSpaceOnUse" color-interpolation-filters="sRGB">
<feFlood flood-opacity="0" result="BackgroundImageFix"/>
<feBlend mode="normal" in="SourceGraphic" in2="BackgroundImageFix" result="shape"/>
<feColorMatrix in="SourceAlpha" type="matrix" values="0 0 0 0 0 0 0 0 0 0 0 0 0 0 0 0 0 0 127 0" result="hardAlpha"/>
<feOffset dx="-1" dy="-1"/>
<feGaussianBlur stdDeviation="0.5"/>
<feComposite in2="hardAlpha" operator="arithmetic" k2="-1" k3="1"/>
<feColorMatrix type="matrix" values="0 0 0 0 0.717647 0 0 0 0 0.443137 0 0 0 0 0.113725 0 0 0 0.1 0"/>
<feBlend mode="normal" in2="shape" result="effect1_innerShadow_822_19593"/>
</filter>
<filter id="filter1_i_822_19593" x="8.21924" y="7.71558" width="60.0845" height="37.4282" filterUnits="userSpaceOnUse" color-interpolation-filters="sRGB">
<feFlood flood-opacity="0" result="BackgroundImageFix"/>
<feBlend mode="normal" in="SourceGraphic" in2="BackgroundImageFix" result="shape"/>
<feColorMatrix in="SourceAlpha" type="matrix" values="0 0 0 0 0 0 0 0 0 0 0 0 0 0 0 0 0 0 127 0" result="hardAlpha"/>
<feOffset dx="-1" dy="-1"/>
<feGaussianBlur stdDeviation="0.5"/>
<feComposite in2="hardAlpha" operator="arithmetic" k2="-1" k3="1"/>
<feColorMatrix type="matrix" values="0 0 0 0 0.717647 0 0 0 0 0.443137 0 0 0 0 0.113725 0 0 0 0.1 0"/>
<feBlend mode="normal" in2="shape" result="effect1_innerShadow_822_19593"/>
</filter>
<filter id="filter2_i_822_19593" x="31.1899" y="21.4951" width="18.916" height="9.64722" filterUnits="userSpaceOnUse" color-interpolation-filters="sRGB">
<feFlood flood-opacity="0" result="BackgroundImageFix"/>
<feBlend mode="normal" in="SourceGraphic" in2="BackgroundImageFix" result="shape"/>
<feColorMatrix in="SourceAlpha" type="matrix" values="0 0 0 0 0 0 0 0 0 0 0 0 0 0 0 0 0 0 127 0" result="hardAlpha"/>
<feOffset dx="1"/>
<feGaussianBlur stdDeviation="0.25"/>
<feComposite in2="hardAlpha" operator="arithmetic" k2="-1" k3="1"/>
<feColorMatrix type="matrix" values="0 0 0 0 0.698039 0 0 0 0 0.411765 0 0 0 0 0.0705882 0 0 0 0.28 0"/>
<feBlend mode="normal" in2="shape" result="effect1_innerShadow_822_19593"/>
</filter>
<filter id="filter3_d_822_19593" x="31.1899" y="20.4951" width="20.916" height="11.6472" filterUnits="userSpaceOnUse" color-interpolation-filters="sRGB">
<feFlood flood-opacity="0" result="BackgroundImageFix"/>
<feColorMatrix in="SourceAlpha" type="matrix" values="0 0 0 0 0 0 0 0 0 0 0 0 0 0 0 0 0 0 127 0" result="hardAlpha"/>
<feOffset dx="1.5"/>
<feGaussianBlur stdDeviation="0.5"/>
<feComposite in2="hardAlpha" operator="out"/>
<feColorMatrix type="matrix" values="0 0 0 0 0.546094 0 0 0 0 0.29741 0 0 0 0 0.00103408 0 0 0 0.26 0"/>
<feBlend mode="normal" in2="BackgroundImageFix" result="effect1_dropShadow_822_19593"/>
<feBlend mode="normal" in="SourceGraphic" in2="effect1_dropShadow_822_19593" result="shape"/>
</filter>
<linearGradient id="paint0_linear_822_19593" x1="7.2428" y1="10.4286" x2="69.5145" y2="47.0842" gradientUnits="userSpaceOnUse">
<stop stop-color="#CC9949"/>
<stop offset="0.212897" stop-color="#FEECB2"/>
<stop offset="0.569511" stop-color="#B26912"/>
<stop offset="0.83157" stop-color="#FDF0AD"/>
<stop offset="0.95698" stop-color="#FEEFAF"/>
<stop offset="1" stop-color="#FEE692"/>
</linearGradient>
<linearGradient id="paint1_linear_822_19593" x1="70.8237" y1="43.0721" x2="10.4113" y2="10.184" gradientUnits="userSpaceOnUse">
<stop stop-color="#D6AA5C"/>
<stop offset="0.268452" stop-color="#FFE9C3"/>
<stop offset="0.523676" stop-color="#E4C284"/>
<stop offset="0.763273" stop-color="#F1C06A"/>
<stop offset="1" stop-color="#E5C57B"/>
</linearGradient>
<linearGradient id="paint2_linear_822_19593" x1="27.0975" y1="8.09717" x2="23.7119" y2="47.1609" gradientUnits="userSpaceOnUse">
<stop stop-color="#CD9A4A"/>
<stop offset="0.226783" stop-color="#FDEFAD"/>
<stop offset="0.419503" stop-color="#DFA956"/>
<stop offset="0.638266" stop-color="#E2BF75"/>
<stop offset="0.825777" stop-color="#F2DC96"/>
<stop offset="1" stop-color="#F3DF99"/>
</linearGradient>
<linearGradient id="paint3_linear_822_19593" x1="25.3702" y1="6.42799" x2="30.2495" y2="56.4203" gradientUnits="userSpaceOnUse">
<stop offset="0.0388243" stop-color="#DFAA56"/>
<stop offset="0.183802" stop-color="#EFCD7E"/>
<stop offset="0.36779" stop-color="#E2BF75"/>
<stop offset="0.647774" stop-color="#FDEDAA"/>
<stop offset="0.780753" stop-color="#F2DC96"/>
<stop offset="0.94026" stop-color="#D4A759"/>
</linearGradient>
<linearGradient id="paint4_linear_822_19593" x1="44.3058" y1="23.74" x2="41.6862" y2="28.2809" gradientUnits="userSpaceOnUse">
<stop offset="0.0444807" stop-color="#FEE692"/>
<stop offset="0.455963" stop-color="#FFF3CA"/>
<stop offset="1" stop-color="#FEE692"/>
</linearGradient>
<linearGradient id="paint5_linear_822_19593" x1="37.8014" y1="23.3499" x2="35.1819" y2="27.8908" gradientUnits="userSpaceOnUse">
<stop offset="0.0444807" stop-color="#FEE692"/>
<stop offset="0.455963" stop-color="#FFF3CA"/>
<stop offset="1" stop-color="#FEE692"/>
</linearGradient>
<clipPath id="clip0_822_19593">
<rect width="72.2573" height="23.8817" fill="white" transform="matrix(0.866204 0.49969 -0.50031 0.865847 12.7798 0.846191)"/>
</clipPath>
</defs>
</svg>
